# xmcd
#
# Track frame offsets: 
#        150
#        11920
#        24435
#        37205
#        48042
#        61085
#        74322
#        87787
#        98305
#        111085
#        122407
#        136405
#        148522
#        160490
#        170560
#
# Disc length: 2447 seconds
#
# Revision: 4
# Processed by: cddbd v1.5.2PL0 Copyright (c) Steve Scherf et al.
# Submitted via: ExactAudioCopy v1.0b6
#
DISCID=c0098d0f
DTITLE=Erma Franklin - Piece of My Heart:  The Best of Erma Franklin
DYEAR=1992
DGENRE=Soul
TTITLE0=Piece of My Heart - 1967
TTITLE1=Hello Again - 1961
TTITLE2=Ev'rytime We Say Goodbye - 1961
TTITLE3=What Kind of Girl (Do You Think I Am?) - 1961
TTITLE4=Don't Blame Me - 1961
TTITLE5=Detour Ahead - 1961
TTITLE6=Time After Time - 1961
TTITLE7=It's Over - 1961
TTITLE8=Never Let Me Go - 1961
TTITLE9=Each Night I Cry - 1961
TTITLE10=Saving My Love for You - 1961
TTITLE11=Pledging My Love - 1961
TTITLE12=The Man I Love - 1961
TTITLE13=Abracadabra - 1961
TTITLE14=Love is Blind - 1963
EXTD=YEAR: 1992
EXTT0=
EXTT1=
EXTT2=
EXTT3=
EXTT4=
EXTT5=
EXTT6=
EXTT7=
EXTT8=
EXTT9=
EXTT10=
EXTT11=
EXTT12=
EXTT13=
EXTT14=
PLAYORDER=
